<?xml version="1.0" encoding="utf-8"?>
<!-- Generator: Adobe Illustrator 15.0.0, SVG Export Plug-In . SVG Version: 6.00 Build 0)  -->
<!DOCTYPE svg PUBLIC "-//W3C//DTD SVG 1.1//EN" "http://www.w3.org/Graphics/SVG/1.1/DTD/svg11.dtd" [
	<!ENTITY ns_extend "http://ns.adobe.com/Extensibility/1.0/">
	<!ENTITY ns_ai "http://ns.adobe.com/AdobeIllustrator/10.0/">
	<!ENTITY ns_graphs "http://ns.adobe.com/Graphs/1.0/">
	<!ENTITY ns_vars "http://ns.adobe.com/Variables/1.0/">
	<!ENTITY ns_imrep "http://ns.adobe.com/ImageReplacement/1.0/">
	<!ENTITY ns_sfw "http://ns.adobe.com/SaveForWeb/1.0/">
	<!ENTITY ns_custom "http://ns.adobe.com/GenericCustomNamespace/1.0/">
	<!ENTITY ns_adobe_xpath "http://ns.adobe.com/XPath/1.0/">
]>
<svg version="1.1" id="Layer_1" xmlns:x="&ns_extend;" xmlns:i="&ns_ai;" xmlns:graph="&ns_graphs;"
	 xmlns="http://www.w3.org/2000/svg" xmlns:xlink="http://www.w3.org/1999/xlink" x="0px" y="0px" width="30px" height="20px"
	 viewBox="0 0 30 20" enable-background="new 0 0 30 20" xml:space="preserve">
<metadata>
	<sfw  xmlns="&ns_sfw;">
		<slices></slices>
		<sliceSourceBounds  x="-20.119" y="-33.639" width="64.8" height="42.495" bottomLeftOrigin="true"></sliceSourceBounds>
	</sfw>
</metadata>
<g>
	<defs>
		<rect id="SVGID_1_" x="0.021" y="0.017" width="30" height="20"/>
	</defs>
	<clipPath id="SVGID_2_">
		<use xlink:href="#SVGID_1_"  overflow="visible"/>
	</clipPath>
	<g id="g2252" transform="matrix(1,0,0,1.1110763,0,1.7001483e-2)" clip-path="url(#SVGID_2_)">
		<rect id="rect2269" x="-0.143" y="-2.707" fill="#273476" width="30.317" height="22.36"/>
		<path id="diags_white" fill="#010101" stroke="#FFFFFF" stroke-width="3" d="M-14.979-9l60,36 M-14.979,27l60-36"/>
		<path id="diags_red" fill="#010101" stroke="#D0202D" stroke-width="2" d="M-14.979-9l60,36 M-14.979,27l60-36"/>
		<path id="eraser_white" fill="#FFFFFF" d="M15.021,9l30,18h-2.4l-30-18 M15.021,9l30-18h2.4l-30,18 M15.021,9l-30,18h-2.4l30-18
			 M15.021,9l-30-18h2.4l30,18"/>
		<comment  id="comment2259">I think the above two lines give the simplest way to make the diagonals</comment>
		<path id="cross_white" fill="#010101" stroke="#FFFFFF" stroke-width="5" d="M-14.979,9h60 M15.021-9v36"/>
		<path id="cross_red" fill="#010101" stroke="#D0202D" stroke-width="3" d="M-14.979,9h60 M15.021-9v36"/>
	</g>
</g>
</svg>
