<svg xmlns="http://www.w3.org/2000/svg" width="29" height="32" viewBox="0 0 29 32"><path fill="#e2574c" d="M3 0h17l9 8.97V30a2 2 0 0 1-2 2H3a2 2 0 0 1-2-2V2c0-1.1.9-2 2-2z"/><path fill="#b53629" d="M29 8.94h-6.95a2 2 0 0 1-2-2V0z"/><path fill="#fff" d="M20.13 14.23v1.74h1.15c.36 0 .54.28.54.57 0 .28-.18.58-.54.58h-1.15v1.28c0 .41-.24.64-.56.64-.32 0-.56-.23-.56-.64v-4.67c0-.34.2-.65.58-.65h1.91c.33 0 .5.29.5.58 0 .28-.16.57-.5.57zm-5.09-1.15c1.9 0 2.97 1.2 2.97 3.06 0 1.75-1.14 2.89-2.88 2.89h-1.47c-.27 0-.66-.15-.66-.63v-4.67c0-.39.27-.65.65-.65zm.07 4.8c1.09 0 1.59-.8 1.59-1.8 0-1.07-.5-1.84-1.67-1.84h-.77v3.63zM10 13.07c1.15 0 2 .8 2 1.99 0 1.21-.88 1.96-1.95 1.96h-.87v1.37c0 .41-.25.64-.58.64-.34 0-.59-.23-.59-.64v-4.67c0-.39.22-.65.6-.65zm-.02 2.86c.5 0 .8-.38.8-.88s-.3-.88-.8-.88h-.8v1.76z"/></svg>