<?xml version="1.0" encoding="utf-8"?>
<svg viewBox="9.189997673034668 3.2529940605163574 128.15699768066406 33.247013092041016" width="128.15699768066406" height="33.247013092041016" xmlns="http://www.w3.org/2000/svg">
  <defs>
    <style>.cls-1{fill:#4d4d4f;}.cls-2{fill:#b0c126;}</style>
  </defs>
  <path class="cls-1" d="M 41.139 31.138 C 42.661 31.909 44.328 32.357 46.032 32.443 C 47.596 32.443 48.402 31.675 48.402 30.758 C 48.402 29.841 47.787 29.194 46.067 28.344 C 43.832 27.227 42.089 25.709 42.089 23.374 C 42.089 19.508 45.441 16.949 50.312 16.949 C 51.971 16.876 53.625 17.205 55.127 17.911 L 53.832 21.809 C 52.662 21.256 51.382 20.97 50.088 20.973 C 48.638 20.973 47.642 21.62 47.642 22.612 C 47.642 23.374 48.402 24.032 49.932 24.76 C 51.954 25.787 54.099 27.284 54.099 29.876 C 54.099 34.154 50.469 36.454 45.541 36.454 C 43.532 36.535 41.541 36.031 39.81 35.003 Z" transform="matrix(1, 0, 0, 1, 0, 0)"/>
  <path class="cls-1" d="M 75.681 17.386 L 73.27 29.997 C 72.811 32.366 72.544 34.388 72.274 36.076 L 67.425 36.076 L 67.773 33.015 L 67.695 33.015 C 66.217 35.132 63.819 36.424 61.239 36.489 C 58.255 36.489 56.457 34.801 56.457 31.249 C 56.464 30.092 56.591 28.94 56.836 27.808 L 58.781 17.375 L 64.288 17.375 L 62.412 27.43 C 62.255 28.236 62.164 29.053 62.142 29.876 C 62.142 31.093 62.6 32.052 64.019 32.052 C 65.895 32.052 67.805 29.82 68.488 26.054 L 70.131 17.418 Z" transform="matrix(1, 0, 0, 1, 0, 0)"/>
  <path class="cls-1" d="M 75.826 36.076 L 77.928 24.905 C 78.465 22.078 78.689 18.94 78.887 17.34 L 83.669 17.34 C 83.559 18.602 83.435 19.867 83.324 21.162 L 83.435 21.162 C 84.73 18.681 86.787 16.917 89.402 16.917 C 89.743 16.898 90.086 16.898 90.429 16.917 L 89.312 22.268 C 89.018 22.249 88.721 22.249 88.427 22.268 C 84.911 22.268 83.268 25.407 82.575 29.072 L 81.28 36.031 Z" transform="matrix(1, 0, 0, 1, 0, 0)"/>
  <path class="cls-1" d="M 96.761 17.386 L 97.6 25.563 C 97.791 27.853 98.024 29.272 98.101 30.647 L 98.258 30.647 C 98.716 29.307 99.378 27.899 100.327 25.596 L 104.113 17.375 L 110.268 17.375 L 99.822 36.076 L 94.237 36.076 L 91.076 17.386 Z" transform="matrix(1, 0, 0, 1, 0, 0)"/>
  <path class="cls-1" d="M 108.402 36.076 L 111.956 17.386 L 117.465 17.386 L 113.987 36.076 Z M 112.726 12.38 C 112.721 10.633 114.149 9.217 115.899 9.241 C 117.443 9.146 118.724 10.414 118.648 11.956 C 118.678 13.739 117.176 15.169 115.396 15.05 C 113.909 15.098 112.698 13.866 112.771 12.38 Z" transform="matrix(1, 0, 0, 1, 0, 0)"/>
  <path class="cls-1" d="M 137.347 24.647 C 137.347 31.484 132.689 36.5 126.176 36.5 C 121.439 36.5 118.268 33.406 118.268 28.781 C 118.268 22.278 122.736 16.973 129.439 16.973 C 134.445 16.949 137.347 20.401 137.347 24.647 Z M 123.942 28.657 C 123.942 30.893 125.06 32.287 126.926 32.287 C 129.94 32.287 131.63 27.899 131.63 24.681 C 131.63 22.96 130.903 21.129 128.689 21.129 C 125.539 21.129 123.932 25.752 123.975 28.657 Z" transform="matrix(1, 0, 0, 1, 0, 0)"/>
  <path class="cls-1" d="M 16.027 15.207 L 16.318 13.901 L 27.679 13.901 C 28.137 13.308 28.617 12.704 29.108 12.102 L 14.563 12.102 L 14.182 14.101 C 14.835 14.403 15.453 14.775 16.027 15.207 Z" transform="matrix(1, 0, 0, 1, 0, 0)"/>
  <path class="cls-2" d="M 42.49 3.253 C 34.594 6.706 25.31 19.32 22.473 24.479 C 21.267 22.535 14.563 15.935 12.877 16.849 C 10.981 18.688 9.695 21.062 9.19 23.654 C 13.748 24.233 20.863 29.809 22.673 32.834 C 26.853 25.429 35.386 17.084 40.347 14.605 Z" transform="matrix(1, 0, 0, 1, 0, 0)"/>
  <path class="cls-1" d="M 34.672 21.52 L 31.867 34.267 L 23.568 34.267 C 23.266 34.747 22.942 35.227 22.673 35.685 C 22.344 35.181 21.969 34.707 21.556 34.267 L 11.782 34.267 L 13.2 27.885 C 12.685 27.629 12.184 27.419 11.671 27.217 L 9.994 36.063 L 33.644 36.063 L 36.716 19.889 C 36.058 20.39 35.398 20.927 34.672 21.52 Z" transform="matrix(1, 0, 0, 1, 0, 0)"/>
</svg>