<?xml version="1.0" encoding="utf-8"?>
<svg viewBox="24.399988174438477 47.23674011230469 180.95912170410156 44.563209533691406" width="180.95912170410156" height="44.563209533691406" xmlns="http://www.w3.org/2000/svg">
  <g transform="matrix(0.6013929843902588, 0, 0, 0.6013929843902588, 9.72599983215332, 36.592079162597656)">
    <path fill="#5289D3" d="M122.1,69.7c-3.3,0-5.9-1.2-8-3.5c-2-2.3-3.1-5.3-3.1-8.9V56c0-3.6,1-6.7,3.1-9c2.1-2.4,4.6-3.6,7.7-3.6&#10;&#9;&#9;c3.1,0,5.4,1,7.1,3c1.7,2,2.5,4.6,2.5,8v2.2h-17.6v0.8c0,2.9,0.7,5.3,2.2,7.2c1.5,1.9,3.5,2.9,6,2.9c1.5,0,3-0.3,4.3-0.8&#10;&#9;&#9;s2.4-1.2,3.2-2l1.2,1.9c-0.9,0.9-2.1,1.7-3.5,2.3C125.8,69.4,124.1,69.7,122.1,69.7z M121.8,45.8c-2.2,0-3.9,0.8-5.3,2.3&#10;&#9;&#9;c-1.4,1.5-2.2,3.5-2.4,5.9l0.1,0.1h14.5v-0.6c0-2.2-0.6-4.1-1.8-5.6C125.7,46.5,124,45.8,121.8,45.8z"/>
    <path fill="#5289D3" d="M152.3,62.7c0-1.2-0.5-2.2-1.5-3.1c-1-0.9-2.7-1.6-5.3-2.2c-3-0.6-5.2-1.5-6.7-2.6&#10;&#9;&#9;c-1.5-1.1-2.2-2.6-2.2-4.5c0-1.9,0.8-3.6,2.4-4.9c1.6-1.3,3.8-2,6.5-2c2.8,0,5.1,0.7,6.8,2.1s2.5,3.2,2.4,5.3l0,0.1h-2.6&#10;&#9;&#9;c0-1.4-0.6-2.6-1.8-3.6s-2.8-1.5-4.7-1.5c-2,0-3.6,0.4-4.6,1.3s-1.5,1.9-1.5,3.1c0,1.2,0.4,2.1,1.3,2.9c0.9,0.8,2.6,1.4,5.3,2&#10;&#9;&#9;c3,0.7,5.2,1.6,6.7,2.7c1.5,1.2,2.3,2.7,2.3,4.7c0,2.1-0.9,3.8-2.6,5.1c-1.7,1.3-4,2-6.8,2c-3.1,0-5.5-0.7-7.2-2.2&#10;&#9;&#9;c-1.8-1.5-2.6-3.2-2.5-5.2l0-0.1h2.6c0.1,1.8,0.9,3.2,2.2,4c1.4,0.8,3,1.2,4.9,1.2c2,0,3.6-0.5,4.8-1.4&#10;&#9;&#9;C151.7,65,152.3,64,152.3,62.7z"/>
    <path fill="#5289D3" d="M165.9,37.4v6.5h5.6v2.3h-5.6v16.5c0,1.7,0.3,2.8,0.9,3.5s1.4,1,2.4,1c0.3,0,0.7,0,1-0.1&#10;&#9;&#9;c0.3,0,0.7-0.1,1.1-0.2l0.4,2.1c-0.4,0.2-0.8,0.3-1.4,0.5c-0.6,0.1-1.1,0.2-1.6,0.2c-1.8,0-3.2-0.6-4.2-1.7s-1.5-2.9-1.5-5.3V46.2&#10;&#9;&#9;h-4.4v-2.3h4.4v-6.5H165.9z"/>
    <path fill="#5289D3" d="M179.7,48.2c0.9-1.5,2-2.7,3.4-3.5s3-1.3,4.9-1.3c2.7,0,4.7,0.8,6.1,2.5c1.4,1.7,2.1,4.2,2.1,7.7v15.6h-2.8&#10;&#9;&#9;V53.5c0-2.7-0.5-4.7-1.6-5.9c-1.1-1.2-2.6-1.8-4.5-1.8c-2,0-3.6,0.5-4.9,1.4s-2.2,2.2-2.8,3.8v18.1h-2.8V32.7h2.8V48.2z"/>
    <path fill="#5289D3" d="M213.2,69.7c-3.3,0-5.9-1.2-8-3.5c-2-2.3-3.1-5.3-3.1-8.9V56c0-3.6,1-6.7,3.1-9c2.1-2.4,4.6-3.6,7.7-3.6&#10;&#9;&#9;c3.1,0,5.4,1,7.1,3c1.7,2,2.5,4.6,2.5,8v2.2H205v0.8c0,2.9,0.7,5.3,2.2,7.2c1.5,1.9,3.5,2.9,6,2.9c1.5,0,3-0.3,4.3-0.8&#10;&#9;&#9;c1.3-0.5,2.4-1.2,3.2-2l1.2,1.9c-0.9,0.9-2.1,1.7-3.5,2.3C216.9,69.4,215.2,69.7,213.2,69.7z M212.9,45.8c-2.2,0-3.9,0.8-5.3,2.3&#10;&#9;&#9;s-2.2,3.5-2.4,5.9l0.1,0.1h14.5v-0.6c0-2.2-0.6-4.1-1.8-5.6C216.8,46.5,215.1,45.8,212.9,45.8z"/>
    <path fill="#5289D3" d="M232.6,37.4v6.5h5.6v2.3h-5.6v16.5c0,1.7,0.3,2.8,0.9,3.5s1.4,1,2.4,1c0.3,0,0.7,0,1-0.1&#10;&#9;&#9;c0.3,0,0.7-0.1,1.1-0.2l0.4,2.1c-0.4,0.2-0.8,0.3-1.4,0.5c-0.6,0.1-1.1,0.2-1.6,0.2c-1.8,0-3.2-0.6-4.2-1.7s-1.5-2.9-1.5-5.3V46.2&#10;&#9;&#9;h-4.4v-2.3h4.4v-6.5H232.6z"/>
    <path fill="#5289D3" d="M246.8,36.6H244v-3.9h2.8V36.6z M246.8,69.2H244V43.9h2.8V69.2z"/>
    <path fill="#5289D3" d="M263.8,67.3c1.8,0,3.4-0.5,4.8-1.6c1.4-1.1,2.1-2.5,2.1-4.4h2.5l0,0.1c0.1,2.3-0.9,4.3-2.8,5.9&#10;&#9;&#9;c-1.9,1.6-4.1,2.4-6.6,2.4c-3.4,0-6-1.2-7.9-3.6c-1.9-2.4-2.8-5.4-2.8-9.1v-1c0-3.7,0.9-6.7,2.8-9.1c1.9-2.4,4.5-3.6,7.9-3.6&#10;&#9;&#9;c2.7,0,5,0.8,6.8,2.5c1.8,1.6,2.7,3.8,2.6,6.5l0,0.1h-2.5c0-2-0.7-3.6-2-4.9c-1.3-1.2-2.9-1.8-4.9-1.8c-2.7,0-4.6,1-5.9,2.9&#10;&#9;&#9;c-1.3,2-1.9,4.4-1.9,7.3v1c0,3,0.6,5.4,1.9,7.4C259.2,66.3,261.1,67.3,263.8,67.3z"/>
    <path fill="#5289D3" d="M277.6,56.1c0-3.7,1-6.8,3.1-9.2c2-2.4,4.7-3.6,8.1-3.6c3.4,0,6.1,1.2,8.1,3.6c2,2.4,3.1,5.4,3.1,9.2v0.8&#10;&#9;&#9;c0,3.7-1,6.8-3.1,9.2s-4.7,3.6-8.1,3.6c-3.4,0-6.1-1.2-8.2-3.6s-3.1-5.4-3.1-9.2V56.1z M280.4,56.9c0,2.9,0.7,5.4,2.2,7.4&#10;&#9;&#9;c1.5,2,3.5,3,6.2,3c2.6,0,4.7-1,6.1-3c1.5-2,2.2-4.5,2.2-7.4v-0.8c0-2.9-0.7-5.3-2.2-7.3s-3.6-3-6.2-3s-4.7,1-6.2,3&#10;&#9;&#9;s-2.2,4.5-2.2,7.3V56.9z"/>
    <path fill="#5289D3" d="M308.3,43.9l0.3,4.4c0.8-1.5,1.9-2.7,3.3-3.6c1.4-0.9,3-1.3,4.9-1.3c2.7,0,4.8,0.8,6.3,2.5&#10;&#9;&#9;c1.4,1.7,2.2,4.3,2.2,7.8v15.4h-2.8V53.8c0-2.9-0.5-5-1.6-6.2c-1.1-1.2-2.6-1.8-4.6-1.8s-3.6,0.5-4.8,1.5c-1.2,1-2.1,2.3-2.7,4&#10;&#9;&#9;v17.9h-2.8V43.9H308.3z"/>
  </g>
  <g transform="matrix(0.6013929843902588, 0, 0, 0.6013929843902588, 9.72599983215332, 36.592079162597656)">
    <path fill="#F58E12" d="M76.3,19.5c-4.2-1.8-9.9,2.2-12.7,8.8c-0.8,1.8-1.3,4.7-1.6,7.8c0,0.2,0.1,0.3,0.2,0.4&#10;&#9;&#9;c1,0.4,1.7,1.5,1.7,4.3c0,1.5-0.6,2.8-1.2,3.5c-0.1,0.1-0.1,0.2-0.1,0.3s0.1,0.2,0.2,0.2c0.9,0.3,2.2,0.7,2.4,0.8&#10;&#9;&#9;c2.5,0.8,6.8-2.1,9.9-5.3c1.7-2.1,3.1-4.2,3.8-5.8C81.7,28.1,80.5,21.3,76.3,19.5"/>
    <path fill="#5289D3" d="M60.9,36.5c0.2,0,0.3-0.2,0.3-0.4c-0.3-3-0.8-5.7-1.5-7.4C56.9,22,51.2,18,47,19.8&#10;&#9;&#9;c-4.3,1.8-5.5,8.6-2.7,15.2c0.5,1.3,1.5,2.9,2.8,4.6c3.1,3.5,7.6,7,10.4,6.2c0.5-0.2,1.6-0.5,2.3-0.8c0.1,0,0.2-0.1,0.2-0.2&#10;&#9;&#9;c0-0.1,0-0.2-0.1-0.3c-0.6-0.7-1.1-1.9-1.1-3.3C58.8,37.8,59.7,36.7,60.9,36.5z"/>
    <path fill="#80A9E1" d="M56.5,50.4c0-0.2-0.2-0.5-0.4-0.6c-2.6-1.2-8-6.1-11.1-9.7c-0.8-0.9-1.8-1.6-2.8-2.2&#10;&#9;&#9;c-0.2-0.1-0.4-0.2-0.6-0.3c-6.6-2.8-13.5-1.6-15.2,2.7c-1.8,4.2,2.2,9.9,8.8,12.7c2.8,1.2,8,1.7,13,1.9c3.6,0.2,7.1-0.1,9.6-0.1&#10;&#9;&#9;C57.4,53.3,56.7,51.9,56.5,50.4z"/>
    <path fill="#A7C5EF" d="M57.6,59.1c0.3-0.8,0.4-1.5,0.4-2.2c0-0.6-0.1-1.3-0.3-2c-6.1-0.1-17.8,0-22.7,2&#10;&#9;&#9;c-6.6,2.7-10.6,8.4-8.9,12.7c1.8,4.3,8.6,5.5,15.2,2.7C45.8,70.5,53.1,63.6,57.6,59.1"/>
    <path fill="#D2E5FF" d="M55.6,67.3c0-3.7,1.5-6.5,2.2-8.8c0,0,0,0,0,0c0,0,0,0,0,0c-4.5,4.4-11.6,11.8-13.4,16.2&#10;&#9;&#9;c-2.8,6.7-1.6,13.5,2.6,15.3c3.1,1.3,7.2-0.5,10.1-4.4c0.6-0.8,0.9-1.9,0.7-2.9C57,78.4,55.6,70.6,55.6,67.3"/>
    <path fill="#E7B25A" d="M66.1,50.1"/>
    <path fill="#FAA946" d="M64.6,54.9c2.4,0,5.8,0.3,9.5,0.1c5.3-0.2,10.9-0.7,13.9-1.9c6.6-2.7,10.5-8.3,8.8-12.6&#10;&#9;&#9;c-1.8-4.3-8.6-5.3-15.2-2.5c-0.2,0.1-0.6,0.3-1.1,0.6c-0.8,0.5-1.6,1-2.2,1.7c-3.4,3.6-9.5,9-11.8,9.8c-0.2,0.1-0.4,0.3-0.5,0.5&#10;&#9;&#9;C65.7,51.9,64.9,53.6,64.6,54.9z"/>
    <path fill="#FCC36B" d="M87.9,57c-5-2.1-17.5-2.1-23.3-2.1c-0.2,0.7-0.3,1.3-0.3,1.9c0,0.4,0,0.9,0.2,1.3&#10;&#9;&#9;c4.3,4.4,12.4,12.3,17,14.2c6.6,2.8,13.5,1.6,15.2-2.7C98.5,65.5,94.5,59.8,87.9,57"/>
    <path fill="#FFDD92" d="M64.5,57.9C64.5,57.9,64.5,57.9,64.5,57.9C64.4,57.9,64.4,57.9,64.5,57.9c0.5,2.3,2.2,5.4,2.2,9.7&#10;&#9;&#9;c0,3.5-1.1,11-1.8,15.2c-0.2,1,0.1,2,0.7,2.8c3,4.1,7.1,6.2,10.4,4.8c4.3-1.8,5.5-8.6,2.7-15.2C76.8,70.3,68.9,62.2,64.5,57.9z"/>
  </g>
</svg>