<?xml version="1.0" encoding="utf-8"?>
<svg viewBox="0 0 133 45" width="133" height="45" xmlns="http://www.w3.org/2000/svg">
  <defs>
    <style>.cls-1{fill:#4d4d4f;}.cls-2{fill:#b0c126;}</style>
  </defs>
  <path class="cls-1" d="M 21.036 34.512 C 21.6 34.798 22.218 34.964 22.85 34.996 C 23.43 34.996 23.729 34.711 23.729 34.371 C 23.729 34.031 23.501 33.791 22.863 33.476 C 22.034 33.062 21.388 32.499 21.388 31.633 C 21.388 30.2 22.631 29.251 24.437 29.251 C 25.052 29.224 25.665 29.346 26.222 29.608 L 25.742 31.053 C 25.308 30.848 24.834 30.742 24.354 30.743 C 23.816 30.743 23.447 30.983 23.447 31.351 C 23.447 31.633 23.729 31.877 24.296 32.147 C 25.046 32.528 25.841 33.083 25.841 34.044 C 25.841 35.63 24.495 36.483 22.668 36.483 C 21.923 36.513 21.185 36.326 20.543 35.945 Z" transform="matrix(1, 0, 0, 1, 0, 0)"/>
  <path class="cls-1" d="M 33.843 29.413 L 32.949 34.089 C 32.779 34.967 32.68 35.717 32.58 36.343 L 30.782 36.343 L 30.911 35.208 L 30.882 35.208 C 30.334 35.993 29.445 36.472 28.488 36.496 C 27.382 36.496 26.715 35.87 26.715 34.553 C 26.718 34.124 26.765 33.697 26.856 33.277 L 27.577 29.409 L 29.619 29.409 L 28.923 33.137 C 28.865 33.436 28.831 33.739 28.823 34.044 C 28.823 34.495 28.993 34.851 29.519 34.851 C 30.215 34.851 30.923 34.023 31.176 32.627 L 31.785 29.425 Z" transform="matrix(1, 0, 0, 1, 0, 0)"/>
  <path class="cls-1" d="M 33.897 36.343 L 34.676 32.201 C 34.875 31.153 34.958 29.989 35.032 29.396 L 36.805 29.396 C 36.764 29.864 36.718 30.333 36.677 30.813 L 36.718 30.813 C 37.198 29.893 37.961 29.239 38.93 29.239 C 39.057 29.232 39.184 29.232 39.311 29.239 L 38.897 31.223 C 38.788 31.216 38.678 31.216 38.569 31.223 C 37.265 31.223 36.656 32.387 36.399 33.746 L 35.919 36.326 Z" transform="matrix(1, 0, 0, 1, 0, 0)"/>
  <path class="cls-1" d="M 41.659 29.413 L 41.97 32.445 C 42.041 33.294 42.127 33.82 42.156 34.33 L 42.214 34.33 C 42.384 33.833 42.629 33.311 42.981 32.457 L 44.385 29.409 L 46.667 29.409 L 42.794 36.343 L 40.723 36.343 L 39.551 29.413 Z" transform="matrix(1, 0, 0, 1, 0, 0)"/>
  <path class="cls-1" d="M 45.975 36.343 L 47.293 29.413 L 49.335 29.413 L 48.046 36.343 Z M 47.578 27.557 C 47.576 26.909 48.106 26.384 48.755 26.393 C 49.327 26.358 49.802 26.828 49.774 27.4 C 49.785 28.061 49.228 28.591 48.568 28.547 C 48.017 28.565 47.568 28.108 47.595 27.557 Z" transform="matrix(1, 0, 0, 1, 0, 0)"/>
  <path class="cls-1" d="M 56.707 32.105 C 56.707 34.64 54.98 36.5 52.565 36.5 C 50.809 36.5 49.633 35.353 49.633 33.638 C 49.633 31.227 51.29 29.26 53.775 29.26 C 55.631 29.251 56.707 30.531 56.707 32.105 Z M 51.737 33.592 C 51.737 34.421 52.151 34.938 52.843 34.938 C 53.961 34.938 54.587 33.311 54.587 32.118 C 54.587 31.48 54.318 30.801 53.497 30.801 C 52.329 30.801 51.733 32.515 51.749 33.592 Z" transform="matrix(1, 0, 0, 1, 0, 0)"/>
  <path class="cls-1" d="M 11.725 28.605 L 11.833 28.121 L 16.045 28.121 C 16.215 27.901 16.393 27.677 16.575 27.454 L 11.182 27.454 L 11.041 28.195 C 11.283 28.307 11.512 28.445 11.725 28.605 Z" transform="matrix(1, 0, 0, 1, 0, 0)"/>
  <path class="cls-2" d="M 21.537 24.173 C 18.609 25.453 15.167 30.13 14.115 32.043 C 13.668 31.322 11.182 28.875 10.557 29.214 C 9.854 29.896 9.377 30.776 9.19 31.737 C 10.88 31.952 13.518 34.019 14.189 35.141 C 15.739 32.395 18.903 29.301 20.742 28.382 Z" transform="matrix(1, 0, 0, 1, 0, 0)"/>
  <path class="cls-1" d="M 18.638 30.946 L 17.598 35.672 L 14.521 35.672 C 14.409 35.85 14.289 36.028 14.189 36.198 C 14.067 36.011 13.928 35.835 13.775 35.672 L 10.151 35.672 L 10.677 33.306 C 10.486 33.211 10.3 33.133 10.11 33.058 L 9.488 36.338 L 18.257 36.338 L 19.396 30.341 C 19.152 30.527 18.907 30.726 18.638 30.946 Z" transform="matrix(1, 0, 0, 1, 0, 0)"/>
</svg>