<?xml version="1.0" encoding="utf-8"?>
<!-- Generator: Adobe Illustrator 15.0.0, SVG Export Plug-In . SVG Version: 6.00 Build 0)  -->
<!DOCTYPE svg PUBLIC "-//W3C//DTD SVG 1.1//EN" "http://www.w3.org/Graphics/SVG/1.1/DTD/svg11.dtd">
<svg version="1.1" id="Layer_1" xmlns="http://www.w3.org/2000/svg" xmlns:xlink="http://www.w3.org/1999/xlink" x="0px" y="0px"
	 width="99.588px" height="45px" viewBox="247.843 398.442 99.588 45" enable-background="new 247.843 398.442 99.588 45"
	 xml:space="preserve">
<g>
	<path fill="#8D2A90" d="M261.814,418.393l-5.491,11.188l-5.545-11.188h-0.793l-2.143,14.966h2.136l1.276-9.354l4.646,9.354h0.83
		l4.588-9.276l1.284,9.276h2.155l-2.155-14.965 M267.073,433.358h9.188v-2.145h-6.994v-4.832h6.993v-2.144h-6.992v-3.702h7.051
		v-2.144h-9.245 M280.968,420.538h0.632c2.004,0,3.452,0.13,4.304,0.389c1.1,0.333,1.969,0.957,2.583,1.851
		c0.619,0.903,0.933,2.015,0.933,3.301c0,1.223-0.288,2.268-0.856,3.104c-0.572,0.84-1.335,1.407-2.335,1.73
		c-0.722,0.232-2.064,0.35-3.988,0.35h-1.271L280.968,420.538L280.968,420.538z M286.953,418.926
		c-1.012-0.358-2.574-0.533-4.771-0.533h-3.335v14.966h4.916c1.831,0,3.284-0.274,4.32-0.816c1.046-0.546,1.907-1.402,2.559-2.543
		c0.646-1.135,0.975-2.462,0.975-3.945c0-1.715-0.414-3.218-1.23-4.466C289.564,420.331,288.409,419.436,286.953,418.926
		 M310.909,429.408c-1.283,1.484-2.832,2.206-4.733,2.206c-1.709,0-3.142-0.548-4.257-1.631c-1.128-1.095-1.677-2.424-1.677-4.064
		c0-1.073,0.252-2.05,0.75-2.904c0.496-0.854,1.209-1.544,2.115-2.052c0.91-0.509,1.913-0.767,2.979-0.767
		c0.981,0,1.892,0.197,2.707,0.587c0.813,0.387,1.52,0.964,2.101,1.718l0.229,0.297l1.717-1.31l-0.215-0.297
		c-0.721-0.993-1.656-1.773-2.781-2.323c-1.121-0.547-2.392-0.825-3.776-0.825c-2.298,0-4.238,0.752-5.771,2.235
		c-1.534,1.485-2.313,3.342-2.313,5.516c0,2.059,0.642,3.844,1.909,5.305c1.51,1.733,3.594,2.61,6.193,2.61
		c1.363,0,2.616-0.26,3.725-0.773c1.116-0.515,2.06-1.254,2.805-2.197l0.237-0.301l-1.714-1.295L310.909,429.408z M327.263,425.866
		c0,1.063-0.247,2.04-0.738,2.907c-0.489,0.861-1.18,1.551-2.053,2.049c-0.877,0.5-1.845,0.754-2.874,0.754
		c-1.56,0-2.857-0.535-3.964-1.636c-1.106-1.099-1.644-2.41-1.644-4.007c0-1.07,0.25-2.051,0.744-2.915
		c0.49-0.864,1.186-1.562,2.065-2.073c0.877-0.51,1.818-0.771,2.797-0.771c0.997,0,1.956,0.26,2.848,0.771s1.592,1.201,2.079,2.051
		C327.015,423.845,327.262,424.81,327.263,425.866 M321.534,418.043c-1.388,0-2.695,0.349-3.887,1.04
		c-1.193,0.69-2.148,1.658-2.839,2.876c-0.689,1.218-1.038,2.557-1.038,3.979c0,2.141,0.769,3.989,2.283,5.498
		c1.516,1.507,3.399,2.271,5.597,2.271c2.175,0,4.043-0.769,5.556-2.282c1.511-1.514,2.278-3.383,2.278-5.556
		c0-2.191-0.77-4.064-2.286-5.566C325.684,418.804,323.779,418.042,321.534,418.043 M345.276,418.393h-0.788l-5.491,11.188
		l-5.545-11.188h-0.792l-2.144,14.966h2.135l1.276-9.354l4.647,9.354h0.829l4.589-9.277l1.282,9.277h2.156 M293.685,418.393h2.188
		v14.966h-2.188V418.393z"/>
</g>
<path fill="#ED3694" d="M251.291,413.162c-0.071-0.196,0.037-0.476,0.509-0.67c0.309-0.126,23.619-9.222,44.913-13.116
	c9.392-1.719,17.369-0.857,18.595,0.903c2.157,2.916-7.462,10.498-7.667,10.674c3.849-2.082,8.82-4.601,11.61-5.512
	c0.938-0.306,1.284,0.027,1.496,0.348c0.514,0.775-0.893,3.286-1.429,4.674c1.139-0.571,6.358-3.346,7.395-3.424
	c1.836-0.136,1.848,1.683,1.983,2.771c0.179,1.429,0.442,2.074,2.229,2.138c4.501,0.16,8.948-1.037,12.163-2.18
	c1.118-0.376,1.118,0.396,0.484,0.646c-0.252,0.115-6.682,2.56-13.058,2.214c-2.194-0.121-2.47-1.467-2.646-2.606
	c-0.196-1.273-0.304-2.106-1.117-2.076c-1.272,0.067-7.037,4.556-8.27,4.564c-0.519,0.003-0.75-0.143-0.967-0.394
	c-0.49-0.566-0.079-1.572,0.605-2.709c0.566-1.018,2.268-3.075,1.598-3.272c-0.449-0.131-4.158,1.808-6.104,2.891
	c-5.921,3.292-7.618,4.81-8.739,4.271c-0.214-0.101-0.696-0.413-0.582-1.08c0.087-0.494,0.691-1.037,2.594-2.67
	c2.569-2.211,8.578-7.237,7.541-8.658c-0.826-1.49-7.945-2.229-16.837-0.758c-21.069,3.484-45.02,13.025-45.326,13.151
	C252.121,413.34,251.428,413.542,251.291,413.162"/>
<g>
	<path fill="#8D2A90" d="M253.834,439.046c-0.248,0-0.477,0.041-0.688,0.124c-0.21,0.08-0.389,0.199-0.539,0.355
		c-0.15,0.157-0.268,0.35-0.352,0.58c-0.084,0.229-0.127,0.492-0.127,0.787c0,0.293,0.039,0.55,0.116,0.772
		c0.078,0.222,0.188,0.408,0.332,0.558c0.144,0.148,0.32,0.261,0.526,0.336c0.208,0.076,0.443,0.114,0.706,0.114
		c0.188,0,0.381-0.016,0.577-0.045c0.196-0.03,0.379-0.073,0.551-0.131v0.786c-0.173,0.049-0.36,0.088-0.562,0.116
		c-0.201,0.029-0.41,0.043-0.625,0.043c-0.422,0-0.792-0.06-1.112-0.18c-0.321-0.121-0.588-0.29-0.804-0.511
		c-0.215-0.22-0.376-0.483-0.483-0.79c-0.108-0.306-0.162-0.645-0.162-1.015c0-0.379,0.058-0.73,0.173-1.058
		c0.116-0.324,0.282-0.606,0.5-0.844c0.216-0.238,0.489-0.427,0.814-0.563c0.328-0.137,0.696-0.206,1.108-0.208
		c0.211,0,0.411,0.013,0.6,0.042c0.188,0.028,0.358,0.068,0.51,0.12v0.774c-0.199-0.062-0.384-0.104-0.555-0.129
		c-0.172-0.025-0.338-0.038-0.503-0.038 M270.946,438.368v4.219h2.332v0.764h-3.244v-4.982 M288.309,438.368h0.912v4.982h-0.912
		V438.368z M307.183,440.685c0.357,0.509,0.648,0.96,0.872,1.354h0.021c-0.03-0.647-0.045-1.119-0.045-1.414v-2.257h0.912v4.982
		h-0.956l-1.624-2.294c-0.285-0.396-0.58-0.857-0.887-1.381h-0.021c0.029,0.61,0.045,1.083,0.045,1.418v2.257h-0.913v-4.983h0.957
		L307.183,440.685L307.183,440.685z M324.311,438.368h0.912v4.982h-0.912V438.368z M343.014,439.046
		c-0.248,0-0.478,0.041-0.688,0.124c-0.21,0.08-0.39,0.199-0.54,0.355c-0.15,0.157-0.268,0.35-0.352,0.58
		c-0.084,0.229-0.126,0.492-0.126,0.787c0,0.293,0.038,0.55,0.115,0.772c0.077,0.222,0.188,0.408,0.331,0.558
		c0.144,0.148,0.319,0.261,0.527,0.336c0.207,0.076,0.442,0.114,0.705,0.114c0.189,0,0.382-0.016,0.577-0.045
		c0.196-0.03,0.38-0.073,0.551-0.131v0.786c-0.173,0.049-0.36,0.088-0.562,0.116c-0.202,0.029-0.41,0.043-0.625,0.043
		c-0.423,0-0.794-0.06-1.114-0.18c-0.319-0.121-0.587-0.29-0.802-0.511c-0.216-0.22-0.377-0.483-0.484-0.79
		c-0.108-0.306-0.162-0.645-0.162-1.015c0-0.379,0.058-0.73,0.172-1.058c0.117-0.324,0.283-0.606,0.5-0.844
		c0.218-0.238,0.489-0.427,0.815-0.563c0.327-0.137,0.696-0.206,1.108-0.208c0.21,0,0.41,0.013,0.6,0.042
		c0.188,0.028,0.357,0.068,0.51,0.12v0.774c-0.198-0.062-0.384-0.104-0.556-0.129C343.344,439.058,343.178,439.045,343.014,439.046"
		/>
</g>
</svg>
