<svg xmlns="http://www.w3.org/2000/svg" xmlns:xlink="http://www.w3.org/1999/xlink" width="303.002" height="60.034" viewBox="146.138 390.929 303.002 60.034"><path fill="#FFF" d="M294.652 430.733c-4.436 0-7.807-1.3-10.172-3.844-2.367-2.605-3.55-6.27-3.55-11.122 0-2.426.296-4.555.888-6.506.59-1.893 1.48-3.55 2.662-4.91 1.183-1.3 2.602-2.365 4.317-3.074 1.716-.71 3.667-1.064 5.854-1.064 2.19 0 4.142.354 5.856 1.064 1.717.71 3.135 1.715 4.26 3.074 1.125 1.36 2.01 2.957 2.602 4.91.592 1.95.89 4.14.89 6.564 0 4.91-1.185 8.635-3.49 11.12-2.366 2.545-5.737 3.787-10.116 3.787m0-5.147c1.064 0 2.07-.176 3.017-.592.945-.414 1.77-.945 2.482-1.773.71-.77 1.242-1.772 1.656-3.015.412-1.244.59-2.72.59-4.377 0-3.373-.65-5.977-1.95-7.69-1.304-1.772-3.255-2.6-5.738-2.6-2.543 0-4.437.886-5.796 2.6-1.36 1.774-2.01 4.32-2.01 7.69s.65 5.854 2.07 7.39c1.24 1.6 3.192 2.368 5.676 2.368m15.618 4.145v-28.57h12.598c1.42 0 2.66.237 3.785.71s2.07 1.125 2.9 1.953c.83.828 1.42 1.832 1.833 2.957s.65 2.307.65 3.61-.236 2.48-.65 3.606c-.414 1.123-1.064 2.07-1.832 2.84-.83.768-1.774 1.418-2.9 1.832-1.122.473-2.364.65-3.784.65h-6.623v10.35h-5.975v.063zm11.65-15.202c1.717 0 2.96-.414 3.727-1.184.77-.77 1.125-1.834 1.125-3.076 0-1.184-.355-2.19-1.125-2.96-.77-.767-2.01-1.18-3.727-1.18h-5.68v8.397h5.68v.003zm10.705 15.203v-28.51h20.996v4.968h-15.14v6.092h13.957v5.027H338.48v7.334h15.85v5.09m17.625 0v-7.337c0-1.36-.297-2.363-.945-2.955-.65-.594-1.834-.89-3.55-.89h-6.33v11.183h-5.794v-28.57h14.488c1.303 0 2.543.237 3.607.65 1.065.413 2.013 1.005 2.782 1.716.77.71 1.36 1.596 1.773 2.602s.65 2.13.65 3.313c0 1.538-.355 2.9-1.123 4.08-.71 1.185-1.775 2.013-3.135 2.485 1.238.414 2.127 1.006 2.658 1.834.533.827.77 2.07.77 3.726v8.104h-5.856v.06h.005zm-10.822-23.6v7.57h7.45c1.6 0 2.722-.356 3.37-1.065.652-.71 1.008-1.598 1.008-2.72 0-1.126-.294-2.013-.944-2.72-.65-.71-1.715-1.066-3.193-1.066H361.133zm38.62 23.6l-1.833-5.915h-10.527l-2.012 5.914h-6.325l10.172-28.57h6.92l10.053 28.57h-6.446zm-9.935-31.23l-1.36-2.367 8.87-5.204 2.014 3.546-9.523 4.022v.002zm2.838 9.108l-3.727 11.416h7.272l-3.55-11.416h.004zm32.293 22.123l-8.517-12.837-3.135 3.135v9.7h-5.916v-28.567h5.916v11.655l10.883-11.652h7.75l-11.24 11.297 11.474 17.27"/><path fill="#009EE2" d="M440.387 416.834c-.06.59-.236 1.123-.475 1.596-.236.475-.592.89-1.006 1.186-.414.354-.887.592-1.36.77-.53.176-1.063.293-1.655.293-.65 0-1.298-.118-1.83-.355-.532-.236-1.065-.533-1.42-1.004-.415-.474-.71-1.007-.946-1.657s-.354-1.42-.354-2.307.117-1.656.354-2.307c.236-.65.533-1.183.945-1.597.413-.414.888-.71 1.48-.887.59-.178 1.183-.297 1.892-.297.65 0 1.242.12 1.775.237.53.178 1.004.414 1.42.77.414.355.71.71.945 1.182.236.472.355 1.003.414 1.595h-2.66c-.06-.53-.297-.887-.594-1.182-.352-.297-.768-.414-1.24-.414-.297 0-.533.056-.77.116-.236.117-.475.234-.65.473-.178.235-.354.53-.414.886-.12.354-.178.828-.178 1.36 0 1.063.178 1.892.592 2.425.414.532.828.77 1.36.77.532 0 .946-.118 1.3-.413.355-.295.594-.71.65-1.242h2.426zm.236 3.608v-2.01l5.027-5.855h-4.73v-2.07h8.103v2.13l-5.088 5.677h5.205v2.13m-161.762-4.97c0 12.776-10.35 23.185-23.185 23.185-12.775 0-23.186-10.353-23.186-23.187s10.35-23.186 23.186-23.186c12.834 0 23.185 10.35 23.185 23.184"/><defs><path id="a" d="M241.482 415.415c0 12.54 10.172 22.713 22.71 22.713s22.712-10.174 22.712-22.713-10.174-22.71-22.71-22.71c-12.54-.06-22.712 10.112-22.712 22.71"/></defs><clipPath id="b"><use xlink:href="#a" overflow="visible"/></clipPath><linearGradient id="c" gradientUnits="userSpaceOnUse" x1="-79.75" y1="171.522" x2="-77.061" y2="171.522" gradientTransform="matrix(16.916 0 0 -16.916 1590.534 3316.836)"><stop offset="0" stop-color="#009EE2"/><stop offset=".405" stop-color="#029FE2"/><stop offset=".55" stop-color="#09A1E3"/><stop offset=".654" stop-color="#14A6E5"/><stop offset=".739" stop-color="#25ACE7"/><stop offset=".81" stop-color="#3BB4EA"/><stop offset=".874" stop-color="#57BEED"/><stop offset=".932" stop-color="#77CAF1"/><stop offset=".983" stop-color="#9BD7F6"/><stop offset="1" stop-color="#A9DCF8"/></linearGradient><path clip-path="url(#b)" fill="url(#c)" d="M241.482 392.644h45.48v45.483h-45.48v-45.483z"/><path fill="#009EE2" d="M429.563 415.473c0 1.006-.828 1.895-1.893 1.895-1.006 0-1.893-.83-1.893-1.895 0-1.004.828-1.893 1.893-1.893 1.064.06 1.893.89 1.893 1.895"/><path fill="#FFF" d="M260.29 423.577v-9.7c0-1.24-.237-2.07-.593-2.483-.413-.414-1.123-.648-2.13-.648-2.187 0-3.312 1.242-3.312 3.666v9.166h-4.258v-15.97h4.02v2.308c.475-.947 1.185-1.596 1.954-2.07.828-.473 1.894-.71 3.194-.71.77 0 1.48.118 2.13.355s1.183.59 1.655 1.007c.473.473.83 1.004 1.123 1.656.296.65.415 1.42.415 2.307v11.12h-4.2v-.003zm15.97 0c-.12-.414-.238-.887-.238-1.42-.473.592-1.183 1.006-2.01 1.36-.83.354-1.773.532-2.84.532-1.832 0-3.193-.415-4.08-1.243-.828-.828-1.3-1.893-1.3-3.193 0-1.123.177-2.07.53-2.78.355-.71.888-1.24 1.54-1.597.65-.414 1.417-.65 2.306-.887.887-.178 1.893-.355 2.957-.53 1.064-.18 1.773-.356 2.13-.595.356-.236.532-.648.532-1.24 0-.533-.236-.947-.71-1.244-.474-.292-1.124-.41-1.952-.41-1.005 0-1.656.233-2.13.647-.413.416-.71 1.008-.77 1.717h-3.96c0-.828.176-1.598.412-2.31.236-.708.65-1.298 1.184-1.772.534-.53 1.303-.887 2.19-1.182.887-.295 1.95-.414 3.252-.414 1.242 0 2.307.12 3.193.414s1.598.71 2.13 1.242c.532.53.888 1.182 1.123 2.01.237.77.354 1.717.354 2.662v10.232h-3.842zm-.296-7.807c-.237.236-.532.414-.946.53-.414.12-1.004.298-1.773.415-1.243.238-2.07.533-2.484.887-.472.355-.71.89-.71 1.598 0 1.184.71 1.773 2.07 1.773.533 0 1.064-.117 1.54-.295.473-.178.886-.414 1.182-.77.356-.295.593-.71.83-1.123.177-.414.295-.887.295-1.36v-1.655h-.003zm-109.182 13.96l-1.835-5.915h-10.47l-2.01 5.914h-6.33l10.174-28.57h6.92l10.055 28.57h-6.504zm-7.098-22.122l-3.726 11.416h7.274l-3.548-11.416z"/><g><defs><path id="d" d="M146.14 429.73h6.33l-4.792-4.32z"/></defs><clipPath id="e"><use xlink:href="#d" overflow="visible"/></clipPath><linearGradient id="f" gradientUnits="userSpaceOnUse" x1="-24.081" y1="183.401" x2="-21.39" y2="183.401" gradientTransform="matrix(2.352 0 0 -2.352 202.76 858.927)"><stop offset="0" stop-color="#009EE2"/><stop offset=".405" stop-color="#029FE2"/><stop offset=".55" stop-color="#09A1E3"/><stop offset=".654" stop-color="#14A6E5"/><stop offset=".739" stop-color="#25ACE7"/><stop offset=".81" stop-color="#3BB4EA"/><stop offset=".874" stop-color="#57BEED"/><stop offset=".932" stop-color="#77CAF1"/><stop offset=".983" stop-color="#9BD7F6"/><stop offset="1" stop-color="#A9DCF8"/></linearGradient><path clip-path="url(#e)" fill="url(#f)" d="M146.14 425.41h6.33v4.317h-6.33v-4.316z"/></g><path fill="#FFF" d="M189.14 401.16h6.09v19.046c0 3.49-1.003 6.092-3.075 7.867-2.01 1.77-4.91 2.66-8.693 2.66-3.49 0-6.21-.828-8.22-2.482-2.01-1.655-3.017-4.2-3.017-7.63v-19.46h6.092v18.868c0 1.773.414 3.193 1.36 4.2.886 1.005 2.13 1.536 3.785 1.536 3.786 0 5.738-1.834 5.738-5.56V401.16h-.06zm15.85 28.57V406.19h-8.577v-4.97h23.185v4.97h-8.635v23.54m21.885 1.005c-4.437 0-7.81-1.3-10.174-3.844-2.365-2.605-3.55-6.27-3.55-11.122 0-2.426.297-4.555.888-6.506.59-1.893 1.48-3.55 2.662-4.91 1.182-1.3 2.602-2.365 4.317-3.074 1.717-.71 3.67-1.064 5.857-1.064 2.188 0 4.14.354 5.854 1.064 1.718.71 3.137 1.715 4.26 3.074 1.125 1.36 2.012 2.957 2.604 4.91.592 1.95.887 4.14.887 6.564 0 4.91-1.183 8.635-3.49 11.12-2.306 2.545-5.676 3.787-10.112 3.787m0-5.147c1.064 0 2.07-.176 3.016-.592.947-.414 1.775-.945 2.484-1.773.71-.77 1.242-1.772 1.656-3.015.415-1.244.592-2.72.592-4.377 0-3.373-.65-5.977-1.95-7.69-1.304-1.772-3.255-2.6-5.74-2.6-2.542 0-4.435.886-5.796 2.6-1.36 1.774-2.012 4.32-2.012 7.69s.65 5.854 2.07 7.39c1.243 1.6 3.195 2.368 5.68 2.368"/><g><path fill="#F2F2F2" d="M292.7 444.16c.178-1.185.592-2.13 1.302-2.78.65-.71 1.48-1.063 2.484-1.063.945 0 1.656.354 2.13 1.123.472.71.59 1.654.413 2.78v.177c-.18 1.182-.653 2.13-1.304 2.78-.65.708-1.48 1.062-2.484 1.062-.946 0-1.656-.355-2.13-1.065s-.59-1.654-.413-2.78v-.235zm1.303.176c-.118.828-.118 1.48.12 2.01.234.533.65.77 1.24.77s1.064-.235 1.48-.77c.414-.533.65-1.182.77-1.95v-.177c.117-.83.058-1.48-.12-2.015-.236-.53-.65-.77-1.242-.77-.59 0-1.062.297-1.477.77-.416.533-.65 1.184-.77 1.953v.178zm12.657.354c-.236 1.186-.65 2.07-1.184 2.604-.533.592-1.242.887-2.13.887-.415 0-.77-.056-1.124-.23-.295-.18-.592-.356-.828-.65l-.71 3.665h-1.36l2.07-10.47h1.184l-.06.77c.296-.296.59-.532.946-.65.354-.177.71-.235 1.124-.235.826 0 1.418.414 1.833 1.182.415.828.474 1.834.235 3.018v.115l.005-.005zm-1.36-.176c.177-.887.177-1.654-.06-2.248-.237-.59-.65-.887-1.242-.887-.296 0-.592.118-.89.296-.294.178-.53.412-.708.77l-.77 3.727c.12.295.297.53.533.71.236.177.53.235.945.235.53 0 1.005-.236 1.36-.65.354-.414.65-1.006.77-1.773l.062-.18zm4.968 3.666c-.947 0-1.656-.354-2.188-1.063-.475-.71-.65-1.596-.475-2.72l.06-.298c.18-1.122.59-2.01 1.302-2.72.71-.71 1.48-1.064 2.307-1.064.947 0 1.598.297 2.01.945.414.65.533 1.42.357 2.485l-.12.887h-4.553c-.117.77-.06 1.36.236 1.834.236.475.65.71 1.24.71.416 0 .77-.06 1.186-.18.353-.116.65-.294.942-.53l.416.89c-.297.294-.65.472-1.066.647-.533.06-1.064.178-1.656.178h.002zm.886-6.8c-.414 0-.77.177-1.123.59s-.65.89-.767 1.48v.06h3.135v-.178c.117-.592.06-1.006-.178-1.36-.18-.415-.532-.593-1.066-.593zm7.69.296l-.77-.06c-.296 0-.59.06-.827.235-.236.18-.475.415-.65.71l-1.064 5.385h-1.36l1.538-7.57h1.185l-.06 1.004c.235-.355.53-.65.888-.83.354-.177.71-.294 1.064-.294h.295s.18.06.238.06l-.476 1.36zm4.258 6.328v-.592c0-.12 0-.297.06-.473-.296.35-.65.59-1.063.825s-.83.354-1.24.354c-.712 0-1.187-.177-1.542-.59-.352-.415-.412-.946-.295-1.657.178-.77.533-1.36 1.125-1.715.59-.414 1.36-.592 2.365-.592h1.3l.12-.77c.117-.472.06-.827-.18-1.064-.176-.236-.53-.354-1.006-.354-.412 0-.77.117-1.063.354-.297.236-.53.473-.59.826h-1.303v-.058c.118-.59.415-1.123 1.065-1.537.59-.414 1.3-.648 2.188-.648.77 0 1.36.234 1.775.648.414.473.592 1.064.414 1.895l-.71 3.666c-.058.297-.116.53-.116.77v.71h-1.303zM321.326 447c.355 0 .77-.12 1.186-.356s.71-.473.887-.77l.296-1.42h-1.36c-.474 0-.888.12-1.24.416-.356.295-.595.59-.65 1.004-.062.354-.062.65.116.828.117.236.354.295.768.295l-.004.002zm2.78-9.464h1.6v.06l-2.07 1.833h-1.005l1.477-1.894zm4.968 6.978h-.828l-.71 3.49h-1.358l2.188-10.94h1.36l-1.243 6.327h.828l2.43-2.956h1.595v.06l-3.016 3.43 1.892 4.142h-1.598l-1.537-3.55h-.003zm15.262.176c-.236 1.186-.65 2.07-1.186 2.604-.53.592-1.24.887-2.127.887-.414 0-.77-.056-1.125-.23-.295-.18-.592-.356-.826-.65l-.71 3.665H337l2.07-10.47h1.184l-.06.77c.296-.296.59-.532.946-.65.354-.177.71-.235 1.123-.235.828 0 1.42.414 1.834 1.182.414.828.473 1.834.236 3.018v.115l.003-.005zm-1.36-.176c.177-.887.177-1.654-.062-2.248-.234-.59-.648-.887-1.24-.887-.297 0-.594.118-.89.296s-.53.412-.708.77l-.77 3.727c.12.295.295.53.533.71.233.177.528.235.942.235.533 0 1.006-.236 1.36-.65.355-.414.65-1.006.77-1.773l.063-.18zm7.096-2.838l-.77-.06c-.295 0-.592.06-.828.235-.236.18-.473.415-.65.71l-1.063 5.385h-1.36l1.54-7.57h1.183l-.06 1.004c.237-.355.532-.65.888-.83.355-.177.71-.294 1.065-.294h.295c.12 0 .178.06.236.06l-.473 1.36zm.532 2.485c.178-1.185.592-2.13 1.303-2.78.65-.71 1.48-1.063 2.484-1.063.946 0 1.657.354 2.13 1.123.473.71.59 1.654.414 2.78v.177c-.178 1.182-.65 2.13-1.3 2.78-.65.708-1.48 1.062-2.485 1.062-.948 0-1.657-.355-2.132-1.065-.473-.71-.59-1.654-.414-2.78v-.235zm1.302.176c-.12.828-.12 1.48.117 2.01.236.53.65.77 1.242.77s1.064-.235 1.48-.77c.416-.533.65-1.182.768-1.95v-.177c.12-.83.06-1.48-.117-2.015-.236-.53-.65-.77-1.242-.77-.59 0-1.064.297-1.48.77-.412.533-.65 1.184-.768 1.953v.178zm13.307.178h-.828l-.71 3.49h-1.36l2.19-10.94h1.358l-1.242 6.327h.83l2.425-2.956h1.598v.06l-3.018 3.43 1.895 4.142h-1.598l-1.537-3.55h-.002zm8.34 3.49v-.592c0-.12 0-.297.06-.473-.296.35-.65.59-1.064.825s-.83.354-1.243.354c-.71 0-1.184-.177-1.537-.59-.357-.415-.416-.946-.297-1.657.176-.77.53-1.36 1.123-1.715.592-.414 1.36-.592 2.365-.592h1.302l.12-.77c.116-.472.06-.827-.18-1.064-.177-.236-.53-.354-1.005-.354-.414 0-.77.117-1.064.354s-.53.473-.59.826h-1.303v-.058c.12-.59.414-1.123 1.064-1.537.592-.414 1.303-.648 2.188-.648.77 0 1.36.234 1.775.648.414.473.592 1.064.414 1.895l-.71 3.666c-.06.297-.117.53-.117.77v.71h-1.3zM371.78 447c.353 0 .767-.12 1.18-.356s.712-.473.888-.77l.295-1.42h-1.36c-.472 0-.886.12-1.24.416-.354.295-.593.59-.65 1.004-.062.354-.062.65.118.828.118.236.355.295.77.295V447zm5.675-.12l4.02.06-.235 1.064h-5.617l.178-.947 4.85-5.5v-.06h-3.724l.234-1.063h5.383l-.178.945-4.91 5.5zm2.9-8.458l1.123-1.064h1.182v.12l-2.01 1.714h-.77l-1.3-1.715v-.12h1.122l.653 1.065zm2.424 5.797c.235-1.304.65-2.308 1.24-2.958.593-.65 1.302-1.006 2.19-1.006.412 0 .71.06 1.063.236.295.178.592.414.77.71l.828-4.142h1.36L388.042 448h-1.184l.06-.71c-.296.297-.59.533-.946.652-.354.117-.71.234-1.123.234-.83 0-1.42-.354-1.835-1.064-.414-.71-.533-1.654-.297-2.72l.06-.177v.004zm1.3.177c-.178.826-.117 1.42.117 1.95.236.474.65.708 1.242.708.354 0 .65-.115.888-.295.236-.176.53-.47.71-.768l.71-3.55c-.12-.294-.297-.53-.533-.71s-.53-.295-.887-.295c-.533 0-1.006.236-1.36.77-.354.533-.65 1.184-.827 2.07l-.06.12zm8.34 3.783c-.947 0-1.656-.354-2.188-1.063-.475-.71-.65-1.596-.475-2.72l.06-.298c.177-1.122.59-2.01 1.3-2.72.71-.71 1.48-1.064 2.31-1.064.944 0 1.597.297 2.01.945.415.65.532 1.42.356 2.485l-.12.887h-4.554c-.122.77-.062 1.36.233 1.834.238.475.65.71 1.242.71.416 0 .77-.06 1.184-.18.354-.116.65-.294.946-.53l.414.89c-.295.294-.65.472-1.063.647-.533.06-1.064.178-1.656.178zm.887-6.8c-.414 0-.77.177-1.123.59-.355.415-.65.89-.77 1.48v.06h3.136v-.178c.117-.592.06-1.006-.18-1.36-.235-.415-.59-.593-1.063-.593zm1.125-3.844h1.598v.06l-2.07 1.833h-1.006l1.478-1.894zm4.73 3.843c.295-.355.65-.593 1.064-.77.354-.18.77-.296 1.182-.296.71 0 1.24.236 1.598.77.354.473.414 1.24.236 2.248l-.945 4.73h-1.36l.946-4.73c.117-.65.117-1.125-.06-1.42-.18-.297-.534-.414-1.007-.414-.295 0-.65.117-.945.295-.296.178-.59.414-.886.71l-1.125 5.562h-1.362l2.19-10.943h1.36l-.89 4.258h.004zm5.442 2.78c.178-1.185.59-2.13 1.3-2.78.65-.71 1.48-1.063 2.485-1.063.944 0 1.655.354 2.128 1.123.473.71.592 1.654.414 2.78v.177c-.178 1.182-.65 2.13-1.3 2.78-.65.708-1.48 1.062-2.485 1.062-.947 0-1.656-.355-2.13-1.065s-.59-1.654-.413-2.78v-.235zm1.36.176c-.118.828-.118 1.48.118 2.01.236.53.65.77 1.242.77.59 0 1.064-.235 1.48-.77.416-.533.648-1.182.77-1.95v-.177c.115-.83.06-1.48-.12-2.015-.235-.53-.65-.77-1.24-.77-.595 0-1.065.297-1.48.77-.415.533-.65 1.184-.77 1.953v.178z"/></g></svg>