<svg xmlns="http://www.w3.org/2000/svg" xmlns:serif="http://www.serif.com/" fill-rule="evenodd" stroke-linejoin="round" stroke-miterlimit="1.414" clip-rule="evenodd" viewBox="0 0 228 45" width="228" height="45"><path fill="#fff" fill-rule="nonzero" d="M118.656 38.076a3.723 3.723 0 0 1-3.427 4.008l-.069.001a2.356 2.356 0 0 1-2.336-2.546 3.722 3.722 0 0 1 3.427-4.008l.069-.001a2.356 2.356 0 0 1 2.336 2.546zm-4.729 1.302c0 1.022.541 1.744 1.442 1.744 1.263 0 2.205-1.603 2.205-3.046a1.53 1.53 0 0 0-1.443-1.724c-1.323.04-2.224 1.724-2.204 3.066v-.04zM118.656 44.388l1.242-6.513c.121-.741.261-1.563.341-2.184h.962l-.16 1.162a2.807 2.807 0 0 1 2.224-1.302c1.323 0 1.884 1.102 1.884 2.224.174 2.159-1.433 4.088-3.587 4.309a2.785 2.785 0 0 1-1.343-.281l-.501 2.665-1.062-.08zm1.743-3.567c.336.246.748.366 1.163.341 1.363 0 2.525-1.683 2.525-3.307 0-.641-.301-1.423-1.203-1.423-.901 0-1.863.962-2.184 2.666l-.301 1.723zM130.259 41.503a4.337 4.337 0 0 1-2.138.585 2.235 2.235 0 0 1-2.211-2.469 3.844 3.844 0 0 1 3.367-4.008 1.61 1.61 0 0 1 1.824 1.583c0 1.623-1.824 2.004-4.108 2.004-.057.398-.016.804.12 1.182.242.536.796.866 1.383.822a3.615 3.615 0 0 0 1.663-.421l.1.722zm-1.162-5.131c-1.022 0-1.764.982-2.004 2.004 1.663 0 2.966-.22 2.966-1.162-.08-.561-.461-.842-1.022-.842h.06zM131.341 41.863l.762-4.008c.14-.801.24-1.603.3-2.184h.942c0 .441-.1.862-.16 1.343a2.206 2.206 0 0 1 1.884-1.483h.28l-.2 1.042h-.281c-.922 0-1.723 1.102-2.004 2.545l-.501 2.725-1.022.02zM139.117 41.863c.018-.536.064-1.071.14-1.603a2.671 2.671 0 0 1-2.385 1.744A1.852 1.852 0 0 1 135.089 40l-.001-.101c0-2.349 1.92-4.287 4.269-4.308a5.709 5.709 0 0 1 1.663.24l-.741 3.167a13.31 13.31 0 0 0-.26 2.865h-.902zm.681-5.39a2.872 2.872 0 0 0-.741 0 3.318 3.318 0 0 0-2.906 3.386c0 .682.24 1.363 1.062 1.363.822 0 2.004-1.162 2.224-2.806l.361-1.943zm1.182-3.367l-1.683 1.823h-.842l1.263-1.823h1.262zM141.501 41.863l1.704-9.058h1.082l-1.082 5.672.581-.622 2.184-2.164h1.303l-2.705 2.545 1.863 3.627h-1.182l-1.483-3.046-.782.702-.44 2.344h-1.043zM148.696 44.388l1.242-6.513c.12-.741.241-1.563.341-2.184h.962l-.181 1.162a2.767 2.767 0 0 1 2.205-1.302c1.343 0 2.004 1.102 2.004 2.224.172 2.187-1.482 4.129-3.667 4.309a2.724 2.724 0 0 1-1.343-.281l-.501 2.665-1.062-.08zm1.743-3.567c.336.246.747.366 1.163.341 1.362 0 2.505-1.683 2.505-3.307 0-.641-.281-1.423-1.183-1.423s-1.864.962-2.184 2.666l-.301 1.723zM155.75 41.863l.761-4.008c.141-.801.241-1.603.321-2.184h.922c0 .441 0 .862-.161 1.343a2.228 2.228 0 0 1 1.884-1.483h.301l-.221 1.042h-.24c-.922 0-1.724 1.102-2.004 2.545l-.501 2.725-1.062.02zM163.986 41.503a4.31 4.31 0 0 1-2.004.481 2.235 2.235 0 0 1-2.365-2.465 3.843 3.843 0 0 1 3.367-4.008 1.612 1.612 0 0 1 1.824 1.583c0 1.623-1.824 2.004-4.008 2.004-.057.398-.016.804.12 1.182.242.536.796.865 1.383.822a3.525 3.525 0 0 0 1.663-.421l.02.822zm-1.162-5.131c-1.002 0-1.764.982-2.004 2.004 1.663 0 2.966-.22 2.966-1.162-.02-.561-.401-.842-.962-.842zM167.273 41.863l1.703-9.058h1.062l-1.082 5.672.581-.622 2.185-2.164h1.302l-2.685 2.545 1.864 3.627h-1.183l-1.483-3.046-.761.702-.441 2.344h-1.062zM176.812 41.863c.018-.536.064-1.071.14-1.603a2.671 2.671 0 0 1-2.385 1.744A1.852 1.852 0 0 1 172.784 40l-.001-.101c0-2.349 1.92-4.287 4.269-4.308a5.709 5.709 0 0 1 1.663.24l-.621 3.207c-.19.943-.277 1.904-.26 2.865l-1.022-.04zm.681-5.39a2.872 2.872 0 0 0-.741 0 3.318 3.318 0 0 0-2.906 3.386c0 .682.24 1.363 1.062 1.363.822 0 2.004-1.162 2.224-2.806l.361-1.943zM178.675 41.202l2.986-3.327c.521-.561.882-.881 1.283-1.282h-3.146l.16-.862h4.409l-.161.701-2.905 3.247c-.397.457-.825.886-1.283 1.282h3.427l-.16.862h-4.73l.12-.621zm3.227-6.273l-.882-1.823h.782l.561 1.182.922-1.182h.841l-1.483 1.823h-.741zM190.779 32.805l-1.342 7.094a17.804 17.804 0 0 0-.261 2.004h-.982l.181-1.222a2.61 2.61 0 0 1-2.205 1.363c-1.202 0-1.863-.982-1.863-2.245a4.025 4.025 0 0 1 3.827-4.208c.373-.007.742.068 1.082.22l.561-2.966 1.002-.04zm-1.763 3.848a2 2 0 0 0-1.022-.241 3.038 3.038 0 0 0-2.625 3.207c0 .741.26 1.523 1.162 1.523.902 0 1.804-.942 2.004-2.325l.481-2.164zM195.188 41.503a4.388 4.388 0 0 1-2.004.481 2.215 2.215 0 0 1-2.344-2.465 3.823 3.823 0 0 1 3.366-4.008 1.611 1.611 0 0 1 1.804 1.583c0 1.623-1.824 2.004-4.108 2.004-.04.399.008.803.14 1.182.235.533.782.863 1.363.822a3.473 3.473 0 0 0 1.663-.421l.12.822zm-1.182-5.131c-1.002 0-1.764.982-2.004 2.004 1.643 0 2.946-.22 2.946-1.162 0-.561-.381-.842-.942-.842zm2.004-3.266l-1.704 1.823h-.721l1.243-1.823h1.182zM196.391 41.863l1.723-9.058h1.062l-.761 4.008a2.645 2.645 0 0 1 2.204-1.242l.049-.001a1.51 1.51 0 0 1 1.494 1.664c.03.347.03.695 0 1.042l-.701 3.607h-1.062l.701-3.567c.026-.28.026-.561 0-.841a.906.906 0 0 0-.962-1.022c-.822 0-1.844.961-2.004 2.344l-.581 3.086-1.162-.02zM208.855 38.076a3.722 3.722 0 0 1-3.406 3.887l-.067.001a2.375 2.375 0 0 1-2.358-2.546 3.723 3.723 0 0 1 3.427-4.008l.082-.001a2.356 2.356 0 0 1 2.322 2.667zm-4.729 1.302c0 1.022.541 1.744 1.463 1.744 1.242 0 2.184-1.603 2.184-3.046 0-.722-.32-1.724-1.443-1.724-1.122 0-2.224 1.724-2.204 3.066v-.04zM110.74 29.659a9.762 9.762 0 0 1-7.575-2.886 11.863 11.863 0 0 1-2.645-8.296c-.023-1.641.2-3.275.661-4.85a10.03 10.03 0 0 1 2.004-3.647 8.57 8.57 0 0 1 3.207-2.265 12.489 12.489 0 0 1 8.697 0 8.17 8.17 0 0 1 3.146 2.305 10.365 10.365 0 0 1 2.004 3.667c.46 1.589.683 3.236.661 4.89a11.762 11.762 0 0 1-2.665 8.296 9.842 9.842 0 0 1-7.495 2.786zm0-3.808a6.017 6.017 0 0 0 2.245-.44 4.773 4.773 0 0 0 1.843-1.363 6.345 6.345 0 0 0 1.243-2.245c.317-1.066.465-2.174.441-3.286a9.427 9.427 0 0 0-1.463-5.732 5.735 5.735 0 0 0-8.637 0 9.259 9.259 0 0 0-1.503 5.732 8.258 8.258 0 0 0 1.523 5.531 5.37 5.37 0 0 0 4.308 1.803z"/><path fill="#fff" fill-rule="nonzero" d="M122.403 28.918V7.635h9.399a7.303 7.303 0 0 1 2.806.521 6.32 6.32 0 0 1 2.164 1.483 6.82 6.82 0 0 1 1.363 2.185c.325.864.488 1.781.481 2.705a7.243 7.243 0 0 1-.481 2.665 6.154 6.154 0 0 1-1.363 2.124 6.661 6.661 0 0 1-2.164 1.383c-.896.34-1.848.51-2.806.501h-4.95v7.716h-4.449zm8.678-11.343a3.764 3.764 0 0 0 2.785-.882 3.226 3.226 0 0 0 .842-2.304 3.05 3.05 0 0 0-.842-2.205 3.765 3.765 0 0 0-2.785-.861h-4.229v6.252h4.229z" serif:id="_Složená_cesta_2"/><path fill="#fff" fill-rule="nonzero" d="M139.097 28.918V7.655h15.631v3.688h-11.303v4.569h10.421v3.747h-10.421v5.471h11.824v3.788h-16.152z" serif:id="_Složená_cesta_3"/><path fill="#fff" fill-rule="nonzero" d="M168.335 28.918v-5.471a2.926 2.926 0 0 0-.702-2.205 4.006 4.006 0 0 0-2.625-.661h-4.689v8.337h-4.329V7.635h10.802a7.204 7.204 0 0 1 2.685.381 6.19 6.19 0 0 1 2.004 1.282 5.25 5.25 0 0 1 1.323 2.004c.318.783.474 1.621.461 2.465a5.719 5.719 0 0 1-.802 3.046 4.488 4.488 0 0 1-2.365 1.864 3.644 3.644 0 0 1 2.004 1.383 5.26 5.26 0 0 1 .602 2.805v6.012l-4.369.041zm-8.016-17.595v5.631h5.571a3.427 3.427 0 0 0 2.545-.782 2.906 2.906 0 0 0 .721-2.004 2.968 2.968 0 0 0-.721-2.004 3.105 3.105 0 0 0-2.385-.781l-5.731-.06z" serif:id="_Složená_cesta_4"/><path fill="#fff" fill-rule="nonzero" d="M189.136 28.918l-1.342-4.389h-7.856l-1.583 4.389h-4.629l7.595-21.283h5.15l7.515 21.283h-4.85zm-7.395-23.267l-1.001-1.763L187.373 0l1.503 2.625-7.135 3.026zm2.004 6.754l-2.725 8.497h5.411l-2.686-8.497z" serif:id="_Složená_cesta_5"/><path fill="#fff" fill-rule="nonzero" d="M207.894 28.918l-6.313-9.58-2.365 2.345v7.235h-4.409V7.635h4.409v8.657l8.136-8.657h5.772l-8.397 8.397 8.597 12.886h-5.43z" serif:id="_Složená_cesta_6"/><path fill="url(#_Radial1)" d="M81.616 18.439c.439-9.79 6.86-17.465 14.329-17.13 7.469.335 13.177 8.555 12.737 18.345-.439 9.789-6.86 17.465-14.329 17.13-7.469-.336-13.177-8.556-12.737-18.345z"/><circle cx="88.055" cy="18.276" r="17.294" fill="#009fe3" serif:id="_Cesta_2"/><circle cx="88.055" cy="18.236" r="16.954" fill="url(#_Linear2)" serif:id="_Cesta_3"/><circle cx="209.978" cy="18.296" r="1.383" fill="#009fe3" serif:id="_Cesta_4"/><g fill="#fff" fill-rule="nonzero"><path d="M85.109 24.048v-7.174a2.682 2.682 0 0 0-.461-1.864 2.1 2.1 0 0 0-1.583-.481c-1.623 0-2.445.922-2.445 2.745v6.774h-3.166V12.024h3.026v1.743a3.769 3.769 0 0 1 1.463-1.543 4.731 4.731 0 0 1 2.385-.541c.531.002 1.059.09 1.563.261.47.161.901.42 1.262.761.364.378.644.829.822 1.323.21.55.312 1.135.301 1.723v8.297h-3.167z" serif:id="_Složená_cesta_7"/><path d="M97.033 24.048a4.32 4.32 0 0 1-.18-1.082 4.271 4.271 0 0 1-1.483 1.022 6.007 6.007 0 0 1-2.145.36 4.31 4.31 0 0 1-3.046-.821 3.11 3.11 0 0 1-.962-2.365 4.337 4.337 0 0 1 .421-2.004 3.279 3.279 0 0 1 1.143-1.202 5.837 5.837 0 0 1 1.723-.642c.681-.14 1.423-.26 2.204-.38a4.14 4.14 0 0 0 1.604-.441.983.983 0 0 0 .42-.902 1.003 1.003 0 0 0-.541-.982 2.796 2.796 0 0 0-1.463-.321 2.15 2.15 0 0 0-1.563.481 2.27 2.27 0 0 0-.601 1.283h-2.926a4.737 4.737 0 0 1 .301-1.703c.175-.515.487-.972.902-1.323a4.013 4.013 0 0 1 1.603-.862 8.516 8.516 0 0 1 2.425-.3 8.202 8.202 0 0 1 2.384.3 4.02 4.02 0 0 1 1.584.922c.402.414.692.925.841 1.483.193.65.288 1.326.281 2.004v7.475h-2.926zm-.22-5.872a1.485 1.485 0 0 1-.702.401c-.435.13-.876.237-1.322.321a4.453 4.453 0 0 0-1.884.681c-.348.29-.535.731-.501 1.182 0 .882.501 1.343 1.523 1.343.385.001.766-.074 1.122-.22.34-.115.649-.307.902-.562.261-.228.472-.508.621-.821.144-.315.219-.656.221-1.002l.02-1.323z" serif:id="_Složená_cesta_8"/></g><path fill="#fff" fill-rule="nonzero" d="M15.431 28.918l-1.403-4.389H6.212l-1.503 4.389H0L7.595 7.635h5.17l7.495 21.283h-4.829zM10.14 12.405h-.12l-2.645 8.497h5.41l-2.645-8.497z" serif:id="_Složená_cesta_9"/><path fill="url(#_Linear3)" fill-rule="nonzero" d="M4.709 28.918H0l1.162-3.247 3.547 3.247z" serif:id="_Složená_cesta_10"/><path fill="#fff" fill-rule="nonzero" d="M32.064 7.635h4.529v14.208a7.32 7.32 0 0 1-2.285 5.852 9.598 9.598 0 0 1-6.453 2.004 9.338 9.338 0 0 1-6.132-1.864 6.998 6.998 0 0 1-2.264-5.791V7.635h4.589v14.028a4.607 4.607 0 0 0 .982 3.126 3.49 3.49 0 0 0 2.825 1.163 3.725 3.725 0 0 0 4.209-4.109V7.635z" serif:id="_Složená_cesta_11"/><path fill="#fff" fill-rule="nonzero" d="M43.887 28.918V11.343h-6.412V7.655h17.314v3.688h-6.433v17.575h-4.469z" serif:id="_Složená_cesta_12"/><path fill="#fff" fill-rule="nonzero" d="M64.669 29.659a9.76 9.76 0 0 1-7.575-2.886 11.868 11.868 0 0 1-2.646-8.296 16.41 16.41 0 0 1 .662-4.85 10.013 10.013 0 0 1 2.004-3.607 8.559 8.559 0 0 1 3.206-2.265 12.489 12.489 0 0 1 8.697 0 8.323 8.323 0 0 1 3.126 2.265 10.333 10.333 0 0 1 2.004 3.667c.461 1.589.684 3.236.662 4.89a11.763 11.763 0 0 1-2.666 8.296 9.84 9.84 0 0 1-7.474 2.786zm0-3.808a6.016 6.016 0 0 0 2.244-.44 4.776 4.776 0 0 0 1.844-1.323 6.358 6.358 0 0 0 1.242-2.245c.317-1.065.466-2.174.441-3.286a9.416 9.416 0 0 0-1.463-5.731 5.734 5.734 0 0 0-4.318-1.964 5.735 5.735 0 0 0-4.319 1.964 9.26 9.26 0 0 0-1.503 5.731c-.16 1.952.38 3.9 1.523 5.491a5.373 5.373 0 0 0 4.309 1.803z" serif:id="_Složená_cesta_13"/><path fill="#009fe3" fill-rule="nonzero" d="M214.627 19.318c.016.261.106.511.26.722.371.301.849.438 1.323.381.309.01.616-.045.902-.161a.54.54 0 0 0 .32-.501.562.562 0 0 0-.26-.501 11.623 11.623 0 0 0-2.004-.561 4.164 4.164 0 0 1-1.743-.661 1.762 1.762 0 0 1-.501-1.323 2.221 2.221 0 0 1 .801-1.723 3.165 3.165 0 0 1 2.225-.722 4.16 4.16 0 0 1 2.224.541c.617.428.984 1.134.982 1.884h-2.004a.97.97 0 0 0-.2-.581 1.287 1.287 0 0 0-1.063-.401 1.504 1.504 0 0 0-.901.201.58.58 0 0 0-.261.461.501.501 0 0 0 .281.46 13.24 13.24 0 0 0 2.004.542 3.47 3.47 0 0 1 1.703.801c.372.354.577.85.561 1.363a2.207 2.207 0 0 1-.801 1.763 4.874 4.874 0 0 1-5.03 0 2.383 2.383 0 0 1-.822-1.843l2.004-.141zM220.438 11.844h1.864v5.31l2.405-2.745h2.365l-2.626 2.705 2.706 4.529h-2.305l-1.763-3.106-.802.822v2.284h-1.844v-9.799z"/><defs><radialGradient id="_Radial1" cx="0" cy="0" r="1" gradientTransform="matrix(13.5269 .60716 -.79579 17.7295 95.127 19.054)" gradientUnits="userSpaceOnUse"><stop offset="0"/><stop offset="1" stop-color="#fff"/></radialGradient><linearGradient id="_Linear2" x2="1" gradientTransform="translate(71.101 18.236) scale(33.9074)" gradientUnits="userSpaceOnUse"><stop offset="0" stop-color="#009fe3"/><stop offset=".4" stop-color="#02a0e3"/><stop offset=".55" stop-color="#09a2e4"/><stop offset=".65" stop-color="#14a6e6"/><stop offset=".74" stop-color="#25ade8"/><stop offset=".81" stop-color="#3bb5eb"/><stop offset=".87" stop-color="#57bfee"/><stop offset=".93" stop-color="#77caf2"/><stop offset=".98" stop-color="#9bd8f7"/><stop offset="1" stop-color="#aaddf9"/></linearGradient><linearGradient id="_Linear3" x2="1" gradientTransform="translate(0 27.294) scale(4.70937)" gradientUnits="userSpaceOnUse"><stop offset="0" stop-color="#009fe3"/><stop offset=".4" stop-color="#02a0e3"/><stop offset=".55" stop-color="#09a2e4"/><stop offset=".65" stop-color="#14a6e6"/><stop offset=".74" stop-color="#25ade8"/><stop offset=".81" stop-color="#3bb5eb"/><stop offset=".87" stop-color="#57bfee"/><stop offset=".93" stop-color="#77caf2"/><stop offset=".98" stop-color="#9bd8f7"/><stop offset="1" stop-color="#aaddf9"/></linearGradient></defs></svg>
